<svg width="98" height="95" viewBox="0 0 98 95" fill="none" xmlns="http://www.w3.org/2000/svg">
<path d="M45.3465 3.19623C46.756 0.0342805 51.244 0.0342841 52.6535 3.19624L63.8075 28.2192C64.3888 29.5233 65.6212 30.4187 67.0411 30.5686L94.2862 33.4441C97.7289 33.8075 99.1158 38.0759 96.5441 40.3935L76.1926 58.7341C75.132 59.6899 74.6612 61.1387 74.9575 62.5354L80.6419 89.3356C81.3601 92.7221 77.7292 95.3602 74.7304 93.6305L50.9985 79.9427C49.7617 79.2293 48.2383 79.2293 47.0015 79.9427L23.2696 93.6305C20.2708 95.3602 16.6399 92.7221 17.3581 89.3356L23.0425 62.5354C23.3388 61.1387 22.868 59.6899 21.8074 58.7341L1.45587 40.3935C-1.11578 38.0759 0.271111 33.8075 3.71385 33.4441L30.9589 30.5686C32.3788 30.4187 33.6112 29.5233 34.1925 28.2192L45.3465 3.19623Z" fill="#FFC32B"/>
</svg>
